<svg width="573" height="617" viewBox="0 0 573 617" fill="none" xmlns="http://www.w3.org/2000/svg">
<path opacity="0.15" d="M238.027 82.5837L38.7673 590.448C38.7673 590.448 156.833 646.091 535.071 594.681L337.447 80.9619C337.447 80.9619 327.257 84.7731 288.215 85.8273C251.765 86.8004 238.027 82.5837 238.027 82.5837Z" fill="#E89F2B"/>
<g opacity="0.7">
<path d="M546.751 596.87C546.751 606.503 429.771 614.32 285.461 614.32C141.151 614.32 24.1712 606.503 24.1712 596.87C24.1712 587.236 141.2 579.436 285.461 579.436C429.722 579.436 546.751 587.236 546.751 596.87Z" fill="#E89F2B"/>
</g>
<path d="M418.042 598.767C414.981 598.77 411.988 597.865 409.442 596.165C406.896 594.465 404.91 592.047 403.737 589.217C402.563 586.388 402.255 583.273 402.85 580.267C403.445 577.262 404.917 574.501 407.08 572.333C409.243 570.165 412 568.689 415.001 568.09C418.003 567.491 421.114 567.797 423.942 568.968C426.77 570.14 429.187 572.125 430.888 574.673C432.589 577.22 433.497 580.215 433.497 583.279C433.499 585.312 433.101 587.326 432.325 589.205C431.549 591.084 430.411 592.791 428.976 594.23C427.54 595.668 425.836 596.809 423.96 597.588C422.084 598.367 420.073 598.767 418.042 598.767Z" fill="#E89F2B"/>
<path d="M417.977 491.68C414.917 491.684 411.925 490.778 409.379 489.079C406.833 487.38 404.848 484.963 403.674 482.134C402.5 479.305 402.19 476.192 402.784 473.187C403.378 470.182 404.848 467.42 407.01 465.252C409.171 463.084 411.926 461.606 414.927 461.005C417.927 460.404 421.038 460.708 423.866 461.877C426.695 463.046 429.113 465.029 430.815 467.574C432.518 470.119 433.429 473.113 433.432 476.176C433.432 480.282 431.805 484.221 428.907 487.128C426.01 490.034 422.079 491.672 417.977 491.68Z" fill="#E89F2B"/>
<path d="M510.965 530.198C516.084 530.96 521.414 531.56 525.837 534.496C528.266 536.088 530.309 538.205 531.814 540.691C533.062 542.799 533.175 544.502 535.314 545.816C535.564 545.957 535.842 546.04 536.128 546.058C536.415 546.077 536.701 546.031 536.968 545.923C537.234 545.816 537.472 545.65 537.665 545.438C537.859 545.225 538.002 544.972 538.084 544.697C540.222 539.345 532.268 532.696 528.267 530.344C522.937 527.23 516.311 525.625 510.803 529.047C510.398 529.306 510.398 530.117 510.965 530.198Z" fill="#D18C2B"/>
<path d="M528.866 549.448C533.937 562.422 554.089 554.557 549.019 541.566C543.948 528.576 523.795 536.441 528.866 549.448Z" fill="#DC432B"/>
<path d="M265.324 601.768C245.773 603.403 226.151 604.041 206.535 603.682C186.933 603.179 167.412 599.043 147.939 598.816C147.513 598.817 147.101 598.973 146.78 599.254C146.459 599.536 146.251 599.924 146.194 600.347C146.136 600.77 146.234 601.199 146.468 601.556C146.703 601.913 147.058 602.172 147.469 602.287C165.84 608.044 187.435 607.996 206.535 608.369C226.325 608.803 246.118 607.61 265.713 604.801C267.333 604.558 267.009 601.703 265.324 601.849V601.768Z" fill="#DC432B"/>
<path d="M60.2 588.096C84.3218 589.588 108.363 589.717 132.533 589.377C154.371 589.02 178.671 590.836 200.022 586.23C201.642 585.874 201.108 583.668 199.666 583.506C187.645 582.225 175.576 584.138 163.524 584.414C152.335 584.673 141.141 584.847 129.941 584.933C106.694 585.111 83.447 584.771 60.2 584.819C59.7703 584.819 59.3583 584.99 59.0545 585.294C58.7506 585.599 58.58 586.011 58.58 586.441C58.58 586.871 58.7506 587.284 59.0545 587.588C59.3583 587.892 59.7703 588.063 60.2 588.063V588.096Z" fill="#DC432B"/>
<path d="M278.171 495.702L278.106 563.185H269.277L254.292 529.419L271.983 495.702H278.171Z" fill="#F1EFE8"/>
<path d="M338.557 577.772L338.669 449.537C338.675 442.47 332.957 436.736 325.898 436.73L219.545 436.637C212.486 436.631 206.758 442.355 206.752 449.422L206.64 577.657C206.634 584.724 212.352 590.458 219.411 590.464L325.764 590.557C332.823 590.563 338.551 584.839 338.557 577.772Z" fill="#DC432B"/>
<path d="M228.379 540.692L265.987 462.358C267.072 460.098 266.121 457.385 263.863 456.299L254.285 451.69C252.027 450.603 249.317 451.555 248.232 453.816L210.624 532.15C209.539 534.41 210.49 537.123 212.747 538.209L222.326 542.818C224.584 543.905 227.294 542.953 228.379 540.692Z" fill="#E89F2B"/>
<path d="M247.44 463.705C244.086 470.711 254.973 475.965 258.342 468.943C261.712 461.921 250.825 456.666 247.44 463.705Z" fill="black"/>
<path d="M236.683 486.069C233.313 493.092 244.2 498.346 247.569 491.308C250.939 484.269 240.052 479.047 236.683 486.069Z" fill="black"/>
<path d="M226.558 507.136C223.188 514.158 234.075 519.413 237.46 512.374C240.846 505.336 229.944 500.113 226.558 507.136Z" fill="black"/>
<path d="M217.777 525.463C214.408 532.469 225.294 537.723 228.664 530.701C232.033 523.679 221.147 518.424 217.777 525.463Z" fill="black"/>
<path d="M294.954 590.529H297.174L298.259 580.085L299.62 579.939L302.86 589.945C303.589 589.815 304.302 589.653 305.014 589.491L303.913 579.031C304.35 578.901 304.788 578.771 305.209 578.609L310.441 587.723C311.122 587.448 311.802 587.156 312.466 586.831L309.226 576.841L310.409 576.16L317.407 583.977C318.023 583.555 318.622 583.117 319.206 582.68L313.957 573.581L314.961 572.673L323.434 578.852C323.952 578.333 324.438 577.782 324.924 577.23L317.893 569.43C318.169 569.073 318.444 568.7 318.703 568.327L328.278 572.624C328.666 571.992 329.039 571.359 329.379 570.711L320.89 564.532C321.085 564.126 321.279 563.705 321.457 563.283L331.712 565.505C331.955 564.807 332.182 564.11 332.392 563.396L322.802 559.131C322.915 558.677 322.996 558.239 323.094 557.785H333.575C333.672 557.055 333.753 556.325 333.818 555.579L323.547 553.406C323.547 553.179 323.547 552.952 323.547 552.725C323.547 552.498 323.547 552.271 323.547 552.044L333.818 549.871C333.818 549.141 333.688 548.411 333.591 547.681H323.094C323.013 547.227 322.915 546.789 322.818 546.351L332.409 542.086C332.214 541.389 331.987 540.675 331.744 539.994L321.474 542.183C321.295 541.762 321.117 541.34 320.923 540.935L329.428 534.772C329.071 534.123 328.699 533.491 328.31 532.858L318.72 537.14C318.477 536.767 318.201 536.394 317.926 536.037L324.973 528.236C324.487 527.685 324.001 527.133 323.499 526.614L314.994 532.793L313.989 531.869L319.254 522.787C318.671 522.333 318.088 521.911 317.472 521.489L310.458 529.29L309.275 528.609L312.515 518.619C311.851 518.294 311.17 518.003 310.49 517.727L305.241 526.825L303.945 526.403L305.063 515.959C304.35 515.781 303.637 515.618 302.908 515.489L299.668 525.495C299.215 525.495 298.777 525.382 298.308 525.349L297.238 514.889H295.1L293.998 525.349L292.654 525.479L289.414 515.473C288.685 515.602 287.956 515.764 287.259 515.943L288.345 526.387L287.049 526.809L281.816 517.694C281.136 517.97 280.471 518.278 279.807 518.586L283.047 528.577C282.658 528.804 282.253 529.031 281.881 529.274L274.866 521.441L273.084 522.738L278.333 531.836L277.312 532.761L268.84 526.566C268.338 527.085 267.835 527.636 267.366 528.187L274.396 535.988C274.105 536.345 273.846 536.718 273.586 537.091L264.012 532.793C263.623 533.426 263.251 534.058 262.894 534.707L271.383 540.886C271.189 541.291 271.011 541.713 270.832 542.135L260.529 539.929C260.27 540.61 260.043 541.308 259.833 542.021L269.423 546.287C269.326 546.741 269.229 547.179 269.148 547.633H258.65C258.553 548.362 258.472 549.092 258.423 549.838L268.694 552.012C268.694 552.239 268.694 552.466 268.694 552.693C268.694 552.92 268.694 553.163 268.694 553.374L258.407 555.547C258.472 556.271 258.553 557.001 258.65 557.736H269.18C269.261 558.191 269.358 558.628 269.472 559.082L259.865 563.332C260.07 564.045 260.297 564.743 260.545 565.424L270.816 563.234C270.994 563.656 271.173 564.078 271.367 564.483L262.862 570.646C263.218 571.295 263.575 571.927 263.964 572.56L273.554 568.278C273.813 568.651 274.072 569.024 274.364 569.381L267.268 577.23C267.738 577.798 268.24 578.333 268.743 578.852L277.231 572.673C277.555 572.997 277.896 573.289 278.236 573.598L272.971 582.68C273.554 583.134 274.153 583.572 274.753 583.977L281.784 576.176C282.172 576.403 282.561 576.646 282.966 576.857L279.726 586.848C280.39 587.172 281.055 587.464 281.735 587.74L286.984 578.641C287.421 578.803 287.842 578.933 288.28 579.063L287.162 589.507C287.875 589.686 288.588 589.848 289.317 589.978L292.557 579.971L293.917 580.117L294.954 590.529ZM300.268 552.709C300.271 553.525 300.032 554.324 299.581 555.004C299.13 555.683 298.488 556.214 297.735 556.528C296.983 556.841 296.154 556.924 295.354 556.766C294.555 556.608 293.82 556.215 293.243 555.638C292.667 555.061 292.275 554.325 292.117 553.525C291.958 552.724 292.041 551.895 292.355 551.141C292.668 550.388 293.198 549.745 293.877 549.293C294.556 548.842 295.354 548.603 296.169 548.606C297.255 548.61 298.295 549.044 299.063 549.812C299.83 550.581 300.264 551.622 300.268 552.709ZM296.185 531.95C301.291 531.951 306.217 533.838 310.02 537.25C313.822 540.661 316.233 545.357 316.792 550.438H305.743C305.225 548.285 303.999 546.369 302.263 544.995C300.528 543.622 298.382 542.872 296.169 542.865C295.221 542.866 294.277 543.003 293.367 543.27L287.859 533.685C290.484 532.534 293.32 531.943 296.185 531.95ZM275.417 552.693C275.42 549.436 276.188 546.225 277.66 543.32C279.132 540.415 281.266 537.898 283.89 535.972L289.398 545.557C288.428 546.478 287.656 547.587 287.128 548.817C286.601 550.046 286.328 551.371 286.328 552.709C286.328 554.047 286.601 555.371 287.128 556.601C287.656 557.83 288.428 558.94 289.398 559.861L283.873 569.43C281.253 567.498 279.122 564.977 277.653 562.07C276.184 559.163 275.418 555.951 275.417 552.693ZM287.826 571.732L293.35 562.164C294.261 562.431 295.204 562.568 296.153 562.569C298.367 562.572 300.518 561.828 302.258 560.457C303.998 559.086 305.226 557.167 305.743 555.012H316.776C316.415 558.248 315.299 561.354 313.518 564.078C311.737 566.803 309.34 569.07 306.522 570.696C303.704 572.322 300.544 573.262 297.296 573.439C294.048 573.616 290.804 573.026 287.826 571.716V571.732Z" fill="#E89F2B"/>
<path d="M322.138 552.741C322.128 547.59 320.594 542.557 317.729 538.278C314.864 534 310.797 530.667 306.041 528.701C301.285 526.734 296.054 526.223 291.008 527.232C285.962 528.24 281.328 530.723 277.69 534.367C274.053 538.01 271.576 542.651 270.572 547.703C269.567 552.755 270.081 557.992 272.048 562.752C274.015 567.512 277.347 571.582 281.623 574.447C285.898 577.313 290.927 578.846 296.072 578.852C299.497 578.854 302.889 578.18 306.053 576.868C309.218 575.557 312.093 573.633 314.514 571.208C316.935 568.783 318.854 565.903 320.163 562.735C321.471 559.566 322.142 556.17 322.138 552.741ZM296.218 556.828C295.404 556.828 294.608 556.586 293.932 556.134C293.255 555.681 292.728 555.038 292.416 554.285C292.105 553.532 292.023 552.704 292.182 551.905C292.341 551.106 292.733 550.372 293.308 549.796C293.884 549.22 294.617 548.827 295.415 548.668C296.213 548.509 297.041 548.591 297.792 548.903C298.544 549.215 299.187 549.743 299.639 550.42C300.091 551.097 300.333 551.894 300.333 552.709C300.333 553.255 300.224 553.796 300.013 554.3C299.802 554.804 299.494 555.261 299.105 555.645C298.716 556.028 298.254 556.33 297.748 556.533C297.241 556.736 296.699 556.837 296.153 556.828H296.218ZM287.923 533.669C290.906 532.372 294.151 531.795 297.397 531.982C300.644 532.169 303.801 533.116 306.615 534.748C309.429 536.379 311.822 538.648 313.601 541.373C315.379 544.098 316.495 547.203 316.857 550.438H305.808C305.29 548.285 304.064 546.368 302.328 544.995C300.592 543.622 298.446 542.872 296.234 542.864C295.285 542.866 294.342 543.002 293.431 543.27L287.923 533.669ZM275.482 552.692C275.485 549.435 276.253 546.225 277.725 543.32C279.197 540.415 281.331 537.898 283.954 535.972L289.462 545.557C288.493 546.478 287.721 547.587 287.193 548.817C286.665 550.046 286.393 551.37 286.393 552.709C286.393 554.047 286.665 555.371 287.193 556.601C287.721 557.83 288.493 558.939 289.462 559.861L283.938 569.429C281.305 567.505 279.162 564.987 277.682 562.079C276.201 559.172 275.426 555.956 275.417 552.692H275.482ZM293.415 562.164C294.326 562.431 295.269 562.568 296.218 562.569C298.432 562.572 300.583 561.828 302.323 560.457C304.063 559.085 305.291 557.167 305.808 555.012H316.84C316.48 558.248 315.364 561.354 313.583 564.078C311.802 566.803 309.405 569.07 306.587 570.696C303.769 572.322 300.608 573.262 297.361 573.439C294.113 573.616 290.869 573.026 287.891 571.716L293.415 562.164Z" fill="#E89F2B"/>
<path d="M320.016 552.724C320.019 547.991 318.62 543.362 315.996 539.424C313.372 535.486 309.641 532.416 305.273 530.6C300.906 528.785 296.1 528.307 291.461 529.226C286.823 530.145 282.561 532.421 279.214 535.765C275.867 539.108 273.585 543.371 272.658 548.012C271.73 552.654 272.198 557.467 274.003 561.842C275.807 566.218 278.867 569.96 282.795 572.595C286.723 575.23 291.344 576.639 296.072 576.646C302.415 576.65 308.5 574.133 312.99 569.647C317.48 565.161 320.007 559.075 320.016 552.724ZM273.036 552.724C273.039 548.156 274.395 543.691 276.934 539.895C279.472 536.099 283.078 533.141 287.295 531.397C291.513 529.652 296.152 529.199 300.627 530.094C305.101 530.99 309.21 533.194 312.434 536.428C315.657 539.661 317.85 543.779 318.735 548.261C319.62 552.743 319.158 557.386 317.406 561.605C315.655 565.823 312.693 569.427 308.895 571.96C305.098 574.493 300.635 575.841 296.072 575.835C293.041 575.833 290.039 575.232 287.24 574.067C284.441 572.903 281.899 571.197 279.759 569.047C277.619 566.897 275.924 564.346 274.77 561.54C273.617 558.733 273.027 555.727 273.036 552.692V552.724Z" fill="#D9D9D9"/>
<g style="mix-blend-mode:multiply">
<path d="M292.054 552.708C292.054 551.893 292.296 551.096 292.749 550.418C293.202 549.74 293.845 549.212 294.598 548.901C295.351 548.59 296.179 548.509 296.978 548.669C297.777 548.83 298.51 549.223 299.085 549.801C299.659 550.379 300.05 551.114 300.207 551.915C300.364 552.715 300.28 553.544 299.966 554.296C299.652 555.048 299.122 555.691 298.443 556.141C297.765 556.592 296.968 556.831 296.153 556.828C295.613 556.828 295.079 556.721 294.581 556.514C294.082 556.306 293.63 556.003 293.249 555.62C292.868 555.237 292.567 554.783 292.362 554.283C292.157 553.784 292.052 553.248 292.054 552.708ZM296.185 531.949C301.291 531.951 306.217 533.838 310.02 537.249C313.822 540.661 316.233 545.357 316.792 550.438H305.743C305.225 548.285 303.999 546.368 302.263 544.995C300.528 543.622 298.382 542.871 296.169 542.864C295.221 542.865 294.277 543.002 293.367 543.269L287.859 533.685C290.484 532.534 293.32 531.943 296.185 531.949ZM275.417 552.692C275.42 549.435 276.188 546.224 277.66 543.32C279.132 540.415 281.266 537.898 283.89 535.971L289.398 545.556C288.428 546.477 287.656 547.587 287.128 548.816C286.601 550.046 286.328 551.37 286.328 552.708C286.328 554.046 286.601 555.371 287.128 556.6C287.656 557.83 288.428 558.939 289.398 559.86L283.873 569.429C281.253 567.498 279.122 564.977 277.653 562.069C276.184 559.162 275.418 555.95 275.417 552.692ZM287.826 571.732L293.35 562.163C294.261 562.431 295.204 562.567 296.153 562.569C298.367 562.572 300.518 561.828 302.258 560.456C303.998 559.085 305.226 557.167 305.743 555.011H316.776C316.415 558.247 315.299 561.353 313.518 564.078C311.737 566.802 309.34 569.069 306.522 570.696C303.704 572.322 300.544 573.261 297.296 573.438C294.048 573.616 290.804 573.025 287.826 571.716V571.732Z" fill="white"/>
</g>
<path d="M521.365 525.333C521.365 508.417 502.865 494.713 480.072 494.73V555.985C502.897 555.936 521.365 542.216 521.365 525.333Z" fill="#E89F2B"/>
<path d="M497.5 574.358L497.457 492.231C497.452 483.435 490.326 476.308 481.54 476.313L364.56 476.374C355.774 476.379 348.655 483.513 348.66 492.309L348.703 574.436C348.707 583.232 355.834 590.358 364.62 590.354L481.6 590.293C490.386 590.288 497.504 583.154 497.5 574.358Z" fill="#DC432B"/>
<path d="M343.508 458.4L348.066 456.213C349.14 455.699 349.593 454.41 349.079 453.336L338.425 431.075C337.911 430.001 336.624 429.548 335.551 430.062L330.993 432.249C329.919 432.763 329.466 434.051 329.98 435.126L340.634 457.386C341.148 458.461 342.435 458.914 343.508 458.4Z" fill="#5A9EAA"/>
<path d="M363.26 393.556L357.166 391.77C355.732 391.35 354.229 392.173 353.809 393.608L340.59 438.807C340.17 440.243 340.992 441.747 342.426 442.168L348.52 443.954C349.954 444.374 351.457 443.551 351.877 442.116L365.097 396.917C365.516 395.481 364.694 393.977 363.26 393.556Z" fill="#488C93"/>
<path d="M332.536 356.344L328.851 361.522C327.984 362.74 328.267 364.431 329.484 365.299L351.504 381.006C352.721 381.874 354.41 381.59 355.277 380.372L358.962 375.194C359.829 373.976 359.546 372.285 358.329 371.417L336.309 355.71C335.092 354.842 333.403 355.126 332.536 356.344Z" fill="#488C93"/>
<path d="M366.088 386.118C366.222 384.81 365.966 383.491 365.352 382.329C364.737 381.167 363.792 380.213 362.637 379.588C361.481 378.964 360.166 378.696 358.859 378.819C357.551 378.943 356.309 379.451 355.29 380.281C354.271 381.111 353.521 382.224 353.134 383.481C352.747 384.737 352.741 386.08 353.116 387.34C353.492 388.6 354.232 389.721 355.243 390.56C356.255 391.399 357.492 391.918 358.798 392.054C360.551 392.23 362.302 391.705 363.668 390.593C365.034 389.48 365.904 387.871 366.088 386.118Z" fill="#DC432B"/>
<path d="M329.247 594.961L329 600.015C328.942 601.204 329.858 602.216 331.047 602.274L355.674 603.48C356.862 603.538 357.873 602.621 357.931 601.431L358.178 596.377C358.236 595.187 357.32 594.176 356.131 594.117L331.504 592.912C330.316 592.853 329.305 593.771 329.247 594.961Z" fill="#5A9EAA"/>
<path d="M154.337 557.492L154.593 563.845C154.654 565.339 155.913 566.502 157.406 566.442L204.412 564.543C205.905 564.483 207.067 563.223 207.006 561.728L206.75 555.376C206.69 553.881 205.431 552.718 203.938 552.779L156.932 554.677C155.439 554.737 154.277 555.998 154.337 557.492Z" fill="#488C93"/>
<path d="M145.889 510.095L139.613 511.071C138.137 511.3 137.126 512.685 137.355 514.163L141.506 540.91C141.735 542.388 143.118 543.4 144.594 543.17L150.869 542.194C152.346 541.965 153.357 540.58 153.128 539.102L148.977 512.355C148.748 510.877 147.365 509.865 145.889 510.095Z" fill="#488C93"/>
<path d="M156.039 543.675C157.084 544.472 157.869 545.561 158.295 546.805C158.721 548.048 158.77 549.39 158.434 550.661C158.099 551.932 157.395 553.075 156.411 553.946C155.426 554.817 154.207 555.375 152.905 555.552C151.604 555.729 150.28 555.515 149.099 554.939C147.919 554.362 146.936 553.448 146.275 552.313C145.613 551.177 145.303 549.87 145.383 548.558C145.463 547.246 145.93 545.987 146.724 544.94C147.794 543.538 149.375 542.618 151.121 542.381C152.867 542.144 154.635 542.609 156.039 543.675Z" fill="#DC432B"/>
<path d="M496.903 585.128L518.158 577.555L527.084 591.778L520.928 596.238L515.922 587.788L505.182 591.583L506.413 600.681L498.864 603.52L496.903 585.128Z" fill="#DC432B"/>
<path d="M179.274 571.297L164.539 568.569C163.097 568.302 161.711 569.256 161.444 570.7L155.936 600.506C155.669 601.95 156.623 603.338 158.066 603.605L172.801 606.334C174.243 606.601 175.629 605.647 175.896 604.202L181.404 574.397C181.67 572.952 180.717 571.565 179.274 571.297Z" fill="#5A9EAA"/>
<path d="M169.89 580.312C166.648 579.709 163.319 579.752 160.093 580.439C156.867 581.125 153.808 582.441 151.091 584.312C148.374 586.183 146.052 588.571 144.257 591.341C142.463 594.111 141.231 597.208 140.633 600.454L190.011 609.666C190.617 606.416 190.578 603.078 189.895 599.842C189.212 596.607 187.899 593.539 186.03 590.813C184.161 588.086 181.774 585.755 179.004 583.953C176.235 582.152 173.138 580.914 169.89 580.312Z" fill="#D18C2B"/>
<path d="M126.556 582.372L136.894 573.943C138.032 573.016 138.203 571.34 137.276 570.201L118.156 546.698C117.23 545.559 115.556 545.388 114.419 546.316L104.081 554.744C102.943 555.672 102.772 557.347 103.698 558.486L122.818 581.989C123.745 583.128 125.418 583.3 126.556 582.372Z" fill="#488C93"/>
<path d="M104.727 561.124L120.542 548.23C121.68 547.303 121.851 545.627 120.924 544.488L101.804 520.986C100.878 519.847 99.204 519.675 98.0663 520.603L82.2517 533.497C81.114 534.424 80.9428 536.1 81.8694 537.239L100.989 560.742C101.916 561.881 103.59 562.052 104.727 561.124Z" fill="#5A9EAA"/>
<path d="M75.428 575.787C68.7865 575.304 62.2254 577.481 57.186 581.839C52.1467 586.197 49.0414 592.379 48.5522 599.027L98.6426 602.692C99.1243 596.043 96.9498 589.475 92.597 584.43C88.2442 579.385 82.069 576.276 75.428 575.787Z" fill="#D18C2B"/>
<path d="M421.46 499.838C423.89 504.039 428.977 506.958 432.8 509.748C437.304 512.991 441.84 517.224 447.04 519.235C449.567 520.224 451.171 516.656 449.535 514.921C445.954 511.126 440.576 508.661 436.153 505.904C431.731 503.147 427.195 499.417 422.205 498.768C422.067 498.733 421.921 498.74 421.786 498.787C421.651 498.835 421.533 498.921 421.447 499.035C421.361 499.149 421.31 499.286 421.3 499.429C421.291 499.572 421.324 499.714 421.395 499.838H421.46Z" fill="black"/>
<path d="M426.45 521.895C431.148 520.046 434.89 515.683 438.389 512.164C441.629 508.92 447.639 504.801 448.563 500.146C448.658 499.763 448.653 499.362 448.548 498.981C448.443 498.601 448.241 498.254 447.962 497.974C447.683 497.695 447.336 497.493 446.956 497.388C446.576 497.282 446.175 497.277 445.792 497.373C441.111 498.411 437.271 504.46 434.047 507.817C430.824 511.174 426.271 515.278 424.57 520.029C424.525 520.287 424.542 520.551 424.62 520.8C424.698 521.05 424.835 521.276 425.02 521.461C425.204 521.646 425.431 521.783 425.68 521.861C425.929 521.94 426.193 521.957 426.45 521.911V521.895Z" fill="black"/>
<path d="M421.46 560.185C423.89 564.385 428.977 567.305 432.8 570.11C437.304 573.354 441.84 577.587 447.04 579.598C449.567 580.571 451.171 577.003 449.535 575.284C445.954 571.473 440.576 569.024 436.153 566.267C431.731 563.51 427.195 559.78 422.205 559.131C421.622 559.131 421.039 559.601 421.395 560.185H421.46Z" fill="black"/>
<path d="M426.45 582.241C431.148 580.392 434.89 576.03 438.389 572.51C441.629 569.267 447.639 565.164 448.563 560.493C448.651 560.11 448.638 559.71 448.527 559.333C448.416 558.956 448.209 558.614 447.928 558.341C447.646 558.067 447.298 557.87 446.919 557.77C446.539 557.67 446.14 557.669 445.76 557.768C441.078 558.822 437.239 564.856 434.015 568.213C430.791 571.57 426.239 575.673 424.538 580.425C424.464 580.686 424.462 580.961 424.53 581.224C424.598 581.486 424.735 581.725 424.927 581.917C425.118 582.108 425.357 582.246 425.619 582.314C425.881 582.382 426.157 582.38 426.417 582.306L426.45 582.241Z" fill="black"/>
<path d="M291.374 408.093L286.028 405.466C287.243 401.59 288.393 397.779 289.641 394.016C289.913 393.436 290.346 392.946 290.888 392.605C292.835 391.137 294.375 389.194 295.359 386.961C300.883 375.706 306.537 364.516 312.159 353.293C312.45 352.725 312.855 352.222 313.487 351.249C311.559 350.422 309.923 349.838 308.416 349.011C308.192 348.78 308.022 348.501 307.921 348.195C307.82 347.889 307.79 347.563 307.833 347.244C308.08 346.518 308.406 345.822 308.805 345.168C309.21 344.178 309.745 343.935 310.879 344.13C311.342 344.182 311.811 344.12 312.246 343.951C312.68 343.781 313.067 343.509 313.374 343.157C313.449 342.69 313.413 342.211 313.27 341.761C313.126 341.31 312.879 340.899 312.547 340.562C312.381 340.449 312.24 340.303 312.131 340.133C312.023 339.964 311.95 339.774 311.916 339.576C311.883 339.377 311.89 339.174 311.938 338.978C311.985 338.783 312.071 338.599 312.191 338.437C317.181 328.496 322.138 318.522 327.144 308.58C327.682 307.437 328.522 306.463 329.572 305.763C330.623 305.063 331.844 304.663 333.105 304.607C335.231 304.374 337.379 304.762 339.291 305.723C341.202 306.684 342.795 308.177 343.878 310.023C344.597 311.105 345.006 312.364 345.06 313.662C345.115 314.96 344.812 316.248 344.186 317.386C339.25 327.214 334.331 337.048 329.428 346.887C328.926 347.892 328.472 348.314 327.225 347.99C326.782 347.942 326.334 347.999 325.917 348.157C325.501 348.315 325.127 348.569 324.827 348.898C324.687 349.287 324.652 349.707 324.726 350.114C324.8 350.521 324.98 350.902 325.248 351.217C326.739 352.271 326.334 353.26 325.621 354.461C325.167 355.223 324.778 356.082 324.001 357.364L318.444 353.536C317.31 355.953 316.516 357.704 315.658 359.407C310.344 370.062 304.998 380.685 299.717 391.356C299.168 392.427 298.863 393.607 298.826 394.811C298.863 396.997 298.096 399.121 296.671 400.779C294.841 403.114 293.172 405.628 291.374 408.093ZM319.886 339.589C320.322 339.08 320.718 338.538 321.069 337.967C325.151 329.858 329.169 321.749 333.235 313.64C333.429 313.235 333.802 312.781 333.737 312.424C333.591 311.678 333.364 310.591 332.846 310.364C332.035 310.201 331.193 310.328 330.465 310.721C330.092 310.867 329.914 311.548 329.687 312.002C325.68 319.981 321.684 327.96 317.699 335.94C317.439 336.384 317.232 336.858 317.083 337.351C316.759 338.826 318.072 340.075 319.886 339.589ZM326.69 343.027C327.125 342.528 327.505 341.985 327.824 341.405C331.95 333.22 336.059 325.02 340.152 316.803C340.372 316.411 340.536 315.991 340.638 315.554C340.705 315.222 340.679 314.879 340.563 314.561C340.446 314.243 340.245 313.964 339.98 313.754C339.715 313.544 339.397 313.412 339.061 313.372C338.726 313.332 338.386 313.385 338.079 313.527C337.446 313.914 336.939 314.478 336.621 315.148C332.538 323.257 328.521 331.366 324.454 339.475C324.193 339.917 324.007 340.399 323.904 340.902C323.854 341.256 323.9 341.616 324.035 341.946C324.171 342.277 324.392 342.564 324.676 342.781C324.96 342.997 325.296 343.134 325.65 343.177C326.004 343.22 326.363 343.169 326.69 343.027Z" fill="black"/>
<path d="M324.503 367.645L336.847 348.751L325.151 336.718L319.368 341.664L326.382 348.508L320.178 358.077L311.624 354.736L307.088 361.401L324.503 367.645Z" fill="#DC432B"/>
<path d="M311.154 431.642H235.954C234.979 431.642 234.188 432.433 234.188 433.409V439.734C234.188 440.711 234.979 441.502 235.954 441.502H311.154C312.129 441.502 312.92 440.711 312.92 439.734V433.409C312.92 432.433 312.129 431.642 311.154 431.642Z" fill="#BC2F20"/>
<path d="M276.843 437.155C280.426 425.569 279.305 413.036 273.723 402.272C268.14 391.507 258.546 383.379 247.018 379.647C244.54 378.868 243.471 382.744 245.933 383.523C256.436 386.984 265.158 394.441 270.216 404.284C275.275 414.127 276.264 425.567 272.971 436.134C272.177 438.599 276.049 439.669 276.843 437.204V437.155Z" fill="black"/>
<path d="M285.461 425.982C285.965 425.936 286.433 425.704 286.775 425.33C287.116 424.957 287.305 424.469 287.305 423.962C287.305 423.456 287.116 422.968 286.775 422.595C286.433 422.221 285.965 421.989 285.461 421.943C284.957 421.989 284.489 422.221 284.147 422.595C283.806 422.968 283.617 423.456 283.617 423.962C283.617 424.469 283.806 424.957 284.147 425.33C284.489 425.704 284.957 425.936 285.461 425.982Z" fill="black"/>
<path d="M259.314 407.185C259.818 407.139 260.286 406.907 260.628 406.534C260.969 406.16 261.158 405.672 261.158 405.166C261.158 404.659 260.969 404.171 260.628 403.798C260.286 403.424 259.818 403.192 259.314 403.146C258.81 403.192 258.342 403.424 258.001 403.798C257.659 404.171 257.47 404.659 257.47 405.166C257.47 405.672 257.659 406.16 258.001 406.534C258.342 406.907 258.81 407.139 259.314 407.185Z" fill="black"/>
<path d="M245.641 407.947C244.518 407.967 243.406 407.724 242.393 407.236C241.381 406.749 240.496 406.032 239.809 405.142C239.299 404.442 238.945 403.64 238.773 402.79H238.497C237.427 402.479 236.469 401.865 235.739 401.022C235.009 400.179 234.538 399.143 234.382 398.038C234.197 397.041 234.197 396.019 234.382 395.022C233.938 394.915 233.504 394.768 233.086 394.584C232.349 394.238 231.691 393.742 231.156 393.128C230.62 392.514 230.219 391.794 229.976 391.016C229.707 389.984 229.707 388.901 229.976 387.87C228.232 387.08 226.809 385.719 225.942 384.01C225.495 383.14 225.261 382.175 225.261 381.196C225.261 380.217 225.495 379.253 225.942 378.382C226.001 378.263 226.082 378.156 226.182 378.069C226.281 377.981 226.397 377.914 226.523 377.871C226.649 377.828 226.781 377.81 226.914 377.818C227.046 377.827 227.176 377.861 227.295 377.92C227.414 377.979 227.52 378.06 227.608 378.16C227.696 378.26 227.763 378.376 227.806 378.501C227.849 378.627 227.866 378.76 227.858 378.893C227.85 379.025 227.815 379.155 227.757 379.274C227.451 379.869 227.292 380.528 227.292 381.196C227.292 381.865 227.451 382.523 227.757 383.118C228.389 384.339 229.393 385.327 230.624 385.94C230.941 385.238 231.309 384.56 231.726 383.913C232.434 383.006 233.358 382.291 234.414 381.835C235.47 381.379 236.623 381.196 237.768 381.301C238.306 381.325 238.825 381.509 239.258 381.83C239.691 382.151 240.018 382.593 240.198 383.102C240.329 383.613 240.322 384.15 240.177 384.657C240.031 385.165 239.754 385.624 239.372 385.988C238.367 386.89 237.185 387.571 235.902 387.99C234.619 388.409 233.263 388.556 231.92 388.421C231.765 389.088 231.765 389.782 231.92 390.448C232.086 390.946 232.349 391.406 232.694 391.801C233.039 392.196 233.459 392.519 233.929 392.751C234.257 392.893 234.599 393.002 234.949 393.076C235.063 392.768 235.192 392.459 235.338 392.135C235.636 391.287 236.107 390.511 236.72 389.855C237.334 389.199 238.077 388.677 238.902 388.324C239.484 388.145 240.101 388.111 240.699 388.224C241.298 388.337 241.859 388.594 242.337 388.973C242.714 389.257 243.015 389.631 243.21 390.062C243.405 390.493 243.489 390.966 243.454 391.438C243.325 392.184 242.978 392.875 242.456 393.424C241.934 393.972 241.261 394.354 240.522 394.519C239.195 394.967 237.807 395.208 236.407 395.233C236.218 396.041 236.185 396.877 236.31 397.698C236.41 398.36 236.674 398.986 237.079 399.519C237.484 400.052 238.016 400.474 238.627 400.747C238.627 400.552 238.627 400.374 238.708 400.179C238.844 399.38 239.141 398.617 239.581 397.937C240.021 397.256 240.595 396.673 241.267 396.222C241.956 395.7 242.814 395.454 243.674 395.532C244.534 395.61 245.333 396.006 245.917 396.644C246.274 397.226 246.438 397.907 246.385 398.588C246.333 399.27 246.067 399.917 245.625 400.439C244.882 401.241 243.945 401.839 242.904 402.174C242.225 402.457 241.52 402.669 240.798 402.806C240.922 403.237 241.119 403.643 241.381 404.007C242.148 404.933 243.198 405.58 244.369 405.85C245.54 406.12 246.767 405.996 247.861 405.499C247.98 405.442 248.109 405.409 248.24 405.403C248.372 405.396 248.504 405.416 248.627 405.462C248.751 405.507 248.865 405.577 248.961 405.667C249.058 405.756 249.135 405.865 249.189 405.985C249.246 406.105 249.279 406.236 249.286 406.369C249.292 406.502 249.272 406.635 249.227 406.76C249.182 406.885 249.112 407 249.022 407.098C248.933 407.196 248.824 407.275 248.703 407.331C247.737 407.749 246.694 407.959 245.641 407.947ZM243.6 397.503C243.176 397.511 242.761 397.635 242.401 397.86C241.967 398.168 241.599 398.561 241.321 399.015C241.042 399.47 240.859 399.976 240.781 400.503C240.775 400.579 240.775 400.655 240.781 400.731C241.294 400.61 241.798 400.453 242.288 400.26C243.008 400.034 243.663 399.639 244.2 399.109C244.364 398.934 244.471 398.713 244.509 398.476C244.546 398.239 244.512 397.996 244.41 397.779C244.309 397.669 244.182 397.585 244.04 397.537C243.899 397.489 243.747 397.477 243.6 397.503ZM240.036 390.124C239.892 390.098 239.743 390.098 239.599 390.124C239.039 390.394 238.54 390.775 238.131 391.243C237.721 391.711 237.411 392.257 237.217 392.849L237.12 393.092C238.079 392.999 239.025 392.798 239.939 392.492C240.684 392.249 241.446 391.73 241.559 391.146C241.563 391.007 241.533 390.869 241.47 390.744C241.408 390.62 241.316 390.512 241.203 390.432C240.855 390.198 240.438 390.089 240.02 390.124H240.036ZM232.584 386.41C234.514 386.463 236.396 385.812 237.882 384.577C238.368 384.058 238.287 383.734 238.254 383.637C238.222 383.54 237.93 383.296 237.493 383.248C236.726 383.188 235.957 383.311 235.247 383.607C234.537 383.903 233.908 384.364 233.41 384.95C233.105 385.42 232.829 385.907 232.584 386.41Z" fill="black"/>
<path d="M160.98 476.874C160.839 476.875 160.699 476.845 160.57 476.786C160.441 476.727 160.327 476.641 160.235 476.533C159.006 475.188 158.265 473.467 158.133 471.649C158 469.83 158.484 468.02 159.506 466.511C160.082 465.731 160.823 465.088 161.677 464.629V464.24C161.645 463.022 161.967 461.822 162.602 460.783C163.237 459.744 164.159 458.911 165.257 458.385C166.269 457.87 167.368 457.546 168.497 457.429C168.439 456.89 168.439 456.346 168.497 455.807C168.619 454.926 168.921 454.08 169.384 453.321C169.847 452.563 170.46 451.907 171.186 451.396C172.19 450.741 173.345 450.356 174.54 450.276C174.769 448.155 175.725 446.178 177.245 444.681C177.999 443.922 178.923 443.354 179.94 443.024C180.957 442.694 182.038 442.612 183.093 442.784C183.224 442.804 183.35 442.849 183.464 442.918C183.577 442.986 183.676 443.077 183.754 443.184C183.832 443.291 183.889 443.413 183.92 443.541C183.951 443.67 183.956 443.804 183.936 443.935C183.92 444.068 183.878 444.197 183.81 444.313C183.743 444.428 183.652 444.529 183.544 444.608C183.436 444.687 183.313 444.743 183.183 444.773C183.052 444.802 182.917 444.804 182.785 444.779C182.037 444.664 181.273 444.726 180.553 444.96C179.833 445.194 179.177 445.593 178.638 446.125C177.509 447.249 176.78 448.713 176.565 450.293C177.451 450.4 178.328 450.573 179.189 450.812C180.36 451.257 181.403 451.987 182.223 452.935C183.043 453.883 183.615 455.02 183.887 456.245C184.038 456.802 184.019 457.393 183.831 457.939C183.643 458.486 183.296 458.963 182.834 459.31C182.35 459.609 181.796 459.776 181.227 459.793C180.658 459.81 180.095 459.677 179.594 459.407C178.307 458.637 177.195 457.606 176.33 456.38C175.465 455.153 174.866 453.759 174.572 452.287C173.763 452.353 172.983 452.621 172.304 453.066C171.815 453.413 171.401 453.857 171.089 454.371C170.777 454.884 170.573 455.455 170.49 456.05C170.441 456.487 170.441 456.927 170.49 457.364L171.705 457.461C172.688 457.485 173.656 457.717 174.544 458.142C175.431 458.567 176.22 459.175 176.856 459.926C177.227 460.468 177.462 461.092 177.541 461.744C177.62 462.396 177.541 463.058 177.31 463.672C177.146 464.154 176.862 464.585 176.485 464.926C176.108 465.266 175.65 465.505 175.155 465.619C174.342 465.723 173.516 465.585 172.782 465.221C172.047 464.858 171.435 464.285 171.024 463.575C170.093 462.307 169.365 460.901 168.87 459.407C167.906 459.469 166.964 459.723 166.099 460.153C165.392 460.495 164.787 461.019 164.349 461.671C163.91 462.324 163.653 463.082 163.605 463.867L164.334 463.737C165.212 463.612 166.106 463.668 166.962 463.902C167.817 464.136 168.615 464.544 169.307 465.1C170.059 465.631 170.586 466.424 170.786 467.323C170.987 468.222 170.847 469.164 170.392 469.965C169.922 470.532 169.28 470.929 168.563 471.096C167.847 471.263 167.095 471.19 166.423 470.889C165.339 470.383 164.406 469.6 163.718 468.619C163.173 467.972 162.696 467.271 162.292 466.527C161.826 466.821 161.42 467.201 161.094 467.646C160.361 468.785 160.022 470.135 160.131 471.486C160.239 472.837 160.788 474.114 161.693 475.122C161.878 475.31 161.982 475.564 161.982 475.828C161.982 476.092 161.878 476.345 161.693 476.533C161.603 476.635 161.493 476.717 161.371 476.775C161.248 476.834 161.116 476.867 160.98 476.874ZM164.22 465.829C164.539 466.402 164.907 466.944 165.322 467.451C165.81 468.146 166.468 468.705 167.233 469.073C167.497 469.204 167.795 469.25 168.085 469.204C168.376 469.157 168.644 469.021 168.853 468.814C169.258 468.262 168.853 467.192 168.108 466.64C167.621 466.269 167.066 465.998 166.473 465.842C165.881 465.686 165.264 465.649 164.658 465.732L164.22 465.829ZM171.057 459.44C171.474 460.496 172.018 461.498 172.677 462.424C173.163 463.105 174.005 463.835 174.734 463.672C174.9 463.622 175.051 463.532 175.175 463.411C175.299 463.289 175.392 463.14 175.447 462.975C175.56 462.672 175.601 462.347 175.564 462.025C175.527 461.704 175.415 461.396 175.236 461.126C174.759 460.611 174.179 460.201 173.535 459.922C172.891 459.643 172.196 459.501 171.494 459.504L171.057 459.44ZM176.678 452.352C177.237 454.523 178.597 456.401 180.485 457.607C181.246 457.964 181.603 457.737 181.716 457.607C181.83 457.477 182.024 457.072 181.927 456.553C181.726 455.7 181.328 454.907 180.766 454.237C180.203 453.566 179.491 453.038 178.687 452.693C178.026 452.534 177.355 452.42 176.678 452.352Z" fill="black"/>
<path d="M295.1 429.972C293.777 429.978 292.468 429.702 291.261 429.161C291.018 429.047 290.83 428.841 290.739 428.588C290.648 428.336 290.661 428.058 290.775 427.815C290.889 427.572 291.094 427.384 291.346 427.293C291.598 427.201 291.876 427.214 292.119 427.328C293.572 428.001 295.207 428.169 296.766 427.805C298.325 427.44 299.717 426.565 300.721 425.317C301.138 424.738 301.436 424.082 301.596 423.387C300.589 423.222 299.605 422.939 298.664 422.544C297.369 422.128 296.203 421.385 295.278 420.387C294.74 419.778 294.414 419.011 294.35 418.2C294.286 417.39 294.486 416.581 294.922 415.894C295.621 415.128 296.581 414.653 297.613 414.563C298.646 414.473 299.674 414.775 300.495 415.408C301.337 415.955 302.059 416.669 302.617 417.506C303.174 418.342 303.554 419.284 303.735 420.273C303.802 420.616 303.845 420.963 303.864 421.311C304.782 420.999 305.595 420.438 306.213 419.691C306.831 418.944 307.229 418.039 307.363 417.078C307.542 415.916 307.482 414.729 307.185 413.592C305.348 413.549 303.525 413.243 301.774 412.683C300.879 412.485 300.062 412.027 299.425 411.366C298.789 410.706 298.36 409.872 298.194 408.969C298.149 408.41 298.248 407.849 298.484 407.34C298.72 406.832 299.083 406.393 299.539 406.066C300.112 405.609 300.788 405.299 301.508 405.163C302.228 405.027 302.97 405.07 303.67 405.288C304.694 405.719 305.615 406.362 306.371 407.175C307.128 407.989 307.704 408.954 308.06 410.007C308.279 410.473 308.474 410.949 308.643 411.435C309.203 411.339 309.748 411.17 310.263 410.932C310.906 410.623 311.479 410.186 311.947 409.648C312.415 409.11 312.768 408.482 312.985 407.802C313.237 406.818 313.237 405.786 312.985 404.801C311.269 405.012 309.528 404.854 307.877 404.34C306.227 403.825 304.704 402.966 303.411 401.817C302.954 401.399 302.619 400.864 302.442 400.27C302.265 399.676 302.253 399.045 302.406 398.444C302.617 397.836 303.004 397.305 303.518 396.918C304.031 396.531 304.648 396.306 305.29 396.271C306.706 396.143 308.132 396.373 309.437 396.94C310.741 397.507 311.883 398.392 312.758 399.514C313.351 400.406 313.861 401.351 314.281 402.336C316.032 401.54 317.469 400.182 318.363 398.476C318.77 397.672 318.982 396.783 318.982 395.882C318.982 394.98 318.77 394.091 318.363 393.287C318.259 393.05 318.25 392.782 318.338 392.538C318.426 392.295 318.604 392.095 318.836 391.98C319.068 391.865 319.335 391.844 319.582 391.921C319.829 391.998 320.036 392.168 320.161 392.395C320.716 393.473 321.005 394.669 321.005 395.882C321.005 397.094 320.716 398.29 320.161 399.368C319.025 401.548 317.171 403.267 314.913 404.234C315.278 405.583 315.278 407.004 314.913 408.353C314.607 409.307 314.11 410.189 313.453 410.945C312.796 411.7 311.991 412.314 311.089 412.748C310.487 413.021 309.857 413.228 309.21 413.364C309.51 414.69 309.554 416.061 309.34 417.403C309.152 418.765 308.572 420.044 307.672 421.083C306.772 422.123 305.59 422.878 304.269 423.257L303.735 423.371C303.532 424.483 303.084 425.536 302.422 426.452C301.564 427.574 300.454 428.477 299.182 429.089C297.909 429.7 296.511 430.003 295.1 429.972ZM297.724 416.592C297.503 416.573 297.28 416.607 297.074 416.691C296.868 416.776 296.686 416.909 296.542 417.078C296.379 417.406 296.32 417.775 296.372 418.138C296.424 418.5 296.585 418.837 296.833 419.106C297.537 419.853 298.417 420.411 299.393 420.727C300.157 421.04 300.949 421.279 301.758 421.441C301.757 421.206 301.729 420.973 301.677 420.744C301.56 420.024 301.298 419.336 300.908 418.72C300.519 418.104 300.009 417.573 299.409 417.159C298.905 416.855 298.33 416.687 297.741 416.673L297.724 416.592ZM302.293 407.137C301.709 407.133 301.14 407.321 300.673 407.672C300.486 407.799 300.334 407.971 300.232 408.172C300.13 408.374 300.081 408.598 300.09 408.823C300.171 409.78 301.321 410.445 302.293 410.802C303.631 411.26 305.027 411.528 306.44 411.597C306.343 411.353 306.229 411.11 306.116 410.867C305.859 410.069 305.438 409.333 304.88 408.708C304.322 408.082 303.639 407.58 302.876 407.234C302.692 407.176 302.502 407.143 302.309 407.137H302.293ZM306.051 398.266H305.5C304.82 398.363 304.415 398.606 304.285 399.012C304.285 399.158 304.107 399.677 304.836 400.455C306.908 402.194 309.576 403.055 312.272 402.855C311.918 402.066 311.501 401.307 311.025 400.585C310.409 399.87 309.649 399.293 308.794 398.893C307.94 398.494 307.01 398.28 306.067 398.266H306.051Z" fill="black"/>
<path d="M268.662 435.34C269.828 426.371 265.632 417.37 256.9 413.754C246.37 409.407 236.537 416.365 230.106 424.295C220.386 436.264 213.906 451.866 209.37 466.462C203.57 485.34 202.663 506.066 189.427 521.797C187.807 523.776 190.61 526.663 192.279 524.652C205.044 509.472 206.859 490.416 211.978 471.927C215.354 459.56 220.327 447.686 226.768 436.605C230.413 430.361 234.512 423.533 240.733 419.527C252.737 411.84 266.426 421.603 264.644 435.307C264.304 437.87 268.338 437.837 268.662 435.307V435.34Z" fill="black"/>
<path d="M330.141 452.157C330.035 453.723 330.035 455.294 330.141 456.86C330.154 456.908 330.182 456.951 330.222 456.981C330.261 457.011 330.31 457.027 330.359 457.027C330.409 457.027 330.457 457.011 330.497 456.981C330.536 456.951 330.565 456.908 330.578 456.86C330.667 455.294 330.667 453.724 330.578 452.157C330.564 452.101 330.531 452.052 330.486 452.016C330.44 451.981 330.384 451.962 330.327 451.962C330.269 451.962 330.213 451.981 330.168 452.016C330.123 452.052 330.09 452.101 330.076 452.157H330.141Z" fill="#BC2F20"/>
<path d="M218.215 460.072C217.465 461.313 216.984 462.697 216.803 464.136C216.622 465.575 216.744 467.035 217.162 468.424C217.34 468.943 218.182 469.04 218.312 468.424C218.827 465.726 219.012 462.976 218.863 460.234C218.867 460.155 218.844 460.077 218.797 460.013C218.75 459.95 218.682 459.904 218.606 459.885C218.529 459.866 218.448 459.874 218.377 459.908C218.305 459.942 218.248 460 218.215 460.072Z" fill="#BC2F20"/>
<path d="M327.808 458.304C328.1 458.719 328.455 459.086 328.861 459.391C329.071 459.553 329.412 459.391 329.25 459.083C328.988 458.66 328.672 458.273 328.31 457.931C328.067 457.704 327.597 458.012 327.808 458.304Z" fill="#BC2F20"/>
<path d="M332.765 457.217C332.635 458.839 332.765 460.461 332.765 462.083C332.66 463.703 332.66 465.328 332.765 466.948C332.765 467.337 333.413 467.499 333.51 467.062C334.067 463.778 333.896 460.411 333.008 457.201C333.008 457.12 332.895 457.201 332.878 457.201L332.765 457.217Z" fill="#BC2F20"/>
<path d="M210.52 570.921C210.328 571.815 210.273 572.734 210.358 573.645C210.375 573.725 210.419 573.796 210.482 573.847C210.546 573.898 210.625 573.926 210.706 573.926C210.788 573.926 210.866 573.898 210.93 573.847C210.993 573.796 211.037 573.725 211.054 573.645C211.141 572.733 211.081 571.813 210.876 570.921C210.876 570.873 210.857 570.828 210.824 570.794C210.791 570.761 210.745 570.742 210.698 570.742C210.651 570.742 210.605 570.761 210.572 570.794C210.539 570.828 210.52 570.873 210.52 570.921Z" fill="#BC2F20"/>
<path d="M212.48 571.635C212.262 573.108 212.262 574.605 212.48 576.078C212.496 576.146 212.534 576.206 212.588 576.25C212.643 576.293 212.71 576.316 212.78 576.316C212.849 576.316 212.917 576.293 212.971 576.25C213.025 576.206 213.064 576.146 213.079 576.078C213.271 574.601 213.244 573.104 212.998 571.635C212.985 571.587 212.957 571.544 212.917 571.514C212.878 571.484 212.829 571.468 212.78 571.468C212.73 571.468 212.682 571.484 212.642 571.514C212.603 571.544 212.574 571.587 212.561 571.635H212.48Z" fill="#BC2F20"/>
<path d="M214.716 576.597C214.529 577.69 214.653 578.814 215.072 579.841C215.077 579.881 215.091 579.92 215.111 579.956C215.131 579.991 215.158 580.022 215.191 580.047C215.223 580.072 215.26 580.09 215.299 580.1C215.339 580.111 215.38 580.114 215.42 580.108C215.461 580.103 215.5 580.09 215.535 580.069C215.57 580.049 215.601 580.022 215.626 579.989C215.651 579.957 215.669 579.92 215.68 579.881C215.69 579.841 215.693 579.8 215.688 579.76C215.749 578.674 215.514 577.592 215.007 576.63C214.994 576.602 214.973 576.579 214.947 576.563C214.922 576.547 214.892 576.538 214.861 576.538C214.831 576.538 214.801 576.547 214.775 576.563C214.75 576.579 214.729 576.602 214.716 576.63V576.597Z" fill="#BC2F20"/>
<path d="M210.973 577.668C211.014 578.305 211.233 578.918 211.605 579.435C211.636 579.477 211.68 579.507 211.729 579.52C211.779 579.533 211.832 579.529 211.879 579.508C211.926 579.488 211.965 579.451 211.989 579.406C212.012 579.36 212.02 579.308 212.01 579.257C211.881 578.643 211.578 578.08 211.135 577.635C211.127 577.622 211.115 577.611 211.1 577.603C211.086 577.596 211.07 577.592 211.054 577.592C211.038 577.592 211.023 577.596 211.008 577.603C210.994 577.611 210.982 577.622 210.973 577.635V577.668Z" fill="#BC2F20"/>
<path d="M272.42 475.057C272.263 476.217 272.301 477.396 272.533 478.544C272.56 478.644 272.619 478.732 272.701 478.795C272.783 478.858 272.884 478.892 272.987 478.892C273.09 478.892 273.191 478.858 273.273 478.795C273.355 478.732 273.414 478.644 273.441 478.544C273.688 477.398 273.726 476.217 273.554 475.057C273.554 474.906 273.494 474.762 273.388 474.656C273.282 474.549 273.137 474.489 272.987 474.489C272.837 474.489 272.692 474.549 272.586 474.656C272.48 474.762 272.42 474.906 272.42 475.057Z" fill="#BC2F20"/>
<path d="M273.619 475.057C273.457 475.762 273.457 476.494 273.619 477.198C273.651 477.295 273.713 477.38 273.795 477.44C273.878 477.5 273.978 477.533 274.08 477.533C274.183 477.533 274.283 477.5 274.365 477.44C274.448 477.38 274.51 477.295 274.542 477.198C274.696 476.493 274.696 475.762 274.542 475.057C274.522 474.953 274.467 474.86 274.386 474.793C274.304 474.725 274.202 474.688 274.097 474.688C273.991 474.688 273.889 474.725 273.808 474.793C273.726 474.86 273.671 474.953 273.651 475.057H273.619Z" fill="#BC2F20"/>
<path d="M274.494 469.673C274.866 471.765 274.607 474.019 275.142 476.063C275.161 476.12 275.199 476.169 275.248 476.204C275.297 476.24 275.356 476.258 275.417 476.258C275.478 476.258 275.537 476.24 275.586 476.204C275.635 476.169 275.673 476.12 275.692 476.063C276.011 473.875 275.765 471.642 274.98 469.575C274.952 469.525 274.908 469.485 274.854 469.462C274.801 469.439 274.742 469.435 274.686 469.45C274.63 469.465 274.581 469.498 274.546 469.545C274.511 469.591 274.493 469.647 274.494 469.705V469.673Z" fill="#BC2F20"/>
<path d="M272.663 483.264C272.49 483.663 272.437 484.103 272.509 484.532C272.581 484.96 272.775 485.359 273.068 485.68C273.295 485.891 273.748 485.761 273.716 485.421C273.555 484.79 273.484 484.141 273.505 483.491C273.603 482.939 272.809 482.696 272.663 483.264Z" fill="#BC2F20"/>
<path d="M215.461 495.443C215.486 496.325 215.737 497.185 216.19 497.941C216.227 498 216.281 498.046 216.346 498.072C216.411 498.097 216.483 498.101 216.55 498.083C216.617 498.065 216.677 498.025 216.72 497.971C216.763 497.916 216.787 497.848 216.789 497.779C216.761 496.895 216.505 496.035 216.044 495.281C215.914 495.005 215.412 495.135 215.461 495.443Z" fill="#BC2F20"/>
<path d="M216.708 494.129C217.21 494.632 217.162 494.989 217.389 495.557C217.502 495.816 217.923 495.978 218.085 495.638C218.235 495.25 218.247 494.823 218.12 494.428C217.994 494.032 217.735 493.692 217.389 493.464C216.935 493.075 216.287 493.708 216.708 494.129Z" fill="#BC2F20"/>
<path d="M231.92 447.487C231.704 448.849 231.666 450.234 231.807 451.606C231.807 451.898 232.374 451.898 232.406 451.606C232.547 450.234 232.508 448.849 232.293 447.487C232.281 447.447 232.256 447.411 232.222 447.386C232.189 447.361 232.148 447.348 232.106 447.348C232.064 447.348 232.024 447.361 231.99 447.386C231.957 447.411 231.932 447.447 231.92 447.487Z" fill="#BC2F20"/>
<path d="M233.038 448.443C232.956 450.157 232.989 451.875 233.135 453.584C233.135 453.957 233.702 453.876 233.799 453.584C234.224 451.861 234.134 450.051 233.54 448.378C233.459 448.103 233.022 448.151 233.038 448.378V448.443Z" fill="#BC2F20"/>
<path d="M248.881 532.274C248.35 533.414 248.09 534.663 248.124 535.921C248.158 537.18 248.484 538.413 249.076 539.523C249.104 539.592 249.158 539.647 249.226 539.676C249.295 539.705 249.372 539.705 249.44 539.677C249.509 539.649 249.564 539.595 249.593 539.527C249.622 539.458 249.622 539.381 249.594 539.312C248.938 537.078 248.938 534.702 249.594 532.468C249.756 531.998 249.06 531.836 248.865 532.274H248.881Z" fill="#BC2F20"/>
<path d="M244.524 531.69C244.442 532.163 244.442 532.645 244.524 533.118C244.545 533.182 244.586 533.239 244.641 533.279C244.697 533.319 244.763 533.341 244.831 533.341C244.9 533.341 244.966 533.319 245.021 533.279C245.077 533.239 245.118 533.182 245.139 533.118C245.221 532.645 245.221 532.163 245.139 531.69C245.139 531.591 245.1 531.497 245.03 531.427C244.96 531.357 244.865 531.317 244.767 531.317C244.668 531.317 244.573 531.357 244.503 531.427C244.433 531.497 244.394 531.591 244.394 531.69H244.524Z" fill="#BC2F20"/>
<path d="M314.216 492.978C313.893 493.998 313.702 495.055 313.649 496.124C313.649 496.464 314.151 496.627 314.297 496.302C314.716 495.326 315.015 494.302 315.188 493.253C315.301 492.621 314.394 492.345 314.216 492.978Z" fill="#BC2F20"/>
<path d="M315.739 496.384C315.544 497.519 315.091 498.59 314.896 499.627C314.896 499.984 315.285 500.373 315.577 500.033C315.955 499.502 316.21 498.892 316.322 498.25C316.434 497.607 316.401 496.947 316.225 496.319C316.225 496.092 315.771 496.076 315.739 496.319V496.384Z" fill="#BC2F20"/>
<path d="M372.228 493.367C372.015 493.685 371.872 494.044 371.807 494.421C371.76 494.598 371.761 494.784 371.809 494.961C371.858 495.138 371.952 495.298 372.082 495.427C372.205 495.566 372.366 495.665 372.545 495.711C372.724 495.757 372.913 495.749 373.087 495.686C373.256 495.636 373.41 495.545 373.534 495.42C373.659 495.296 373.75 495.142 373.8 494.973C373.933 494.61 373.989 494.223 373.962 493.837C373.955 493.636 373.884 493.443 373.759 493.285C373.634 493.128 373.462 493.014 373.268 492.961C373.075 492.909 372.869 492.92 372.682 492.993C372.494 493.066 372.336 493.197 372.228 493.367Z" fill="#BC2F20"/>
<path d="M367.676 496.886C367.077 497.648 366.688 498.508 367.271 499.335C367.311 499.405 367.37 499.462 367.443 499.499C367.515 499.535 367.596 499.549 367.676 499.538C367.757 499.528 367.832 499.494 367.892 499.44C367.953 499.386 367.996 499.316 368.016 499.238C368.178 498.556 368.016 497.891 368.211 497.194C368.211 496.918 367.887 496.626 367.676 496.886Z" fill="#BC2F20"/>
<path d="M478.824 490.188C478.904 490.805 478.843 491.432 478.646 492.021C478.635 492.085 478.646 492.151 478.677 492.209C478.708 492.266 478.757 492.311 478.817 492.337C478.876 492.363 478.943 492.369 479.006 492.353C479.069 492.336 479.125 492.3 479.164 492.248C479.576 491.61 479.743 490.843 479.634 490.091C479.621 489.984 479.566 489.886 479.481 489.819C479.396 489.752 479.288 489.721 479.181 489.734C479.073 489.747 478.975 489.802 478.908 489.888C478.842 489.973 478.811 490.081 478.824 490.188Z" fill="#BC2F20"/>
<path d="M481.4 491.08C481.263 491.765 481.263 492.471 481.4 493.156C481.417 493.198 481.446 493.234 481.483 493.26C481.521 493.285 481.565 493.299 481.611 493.299C481.656 493.299 481.7 493.285 481.738 493.26C481.775 493.234 481.804 493.198 481.821 493.156C481.951 492.47 481.951 491.766 481.821 491.08C481.811 491.048 481.79 491.02 481.762 491C481.735 490.98 481.701 490.969 481.667 490.969C481.633 490.969 481.6 490.98 481.572 491C481.545 491.02 481.524 491.048 481.513 491.08H481.4Z" fill="#BC2F20"/>
<path d="M483.166 563.867C482.576 564.585 482.071 565.369 481.659 566.202C481.546 566.461 481.967 566.688 482.129 566.478C482.655 565.712 483.095 564.891 483.441 564.029C483.455 563.993 483.455 563.953 483.443 563.917C483.43 563.881 483.405 563.85 483.372 563.831C483.339 563.812 483.3 563.804 483.262 563.811C483.225 563.817 483.19 563.837 483.166 563.867Z" fill="#BC2F20"/>
<path d="M479.019 561.903C479.019 562.795 479.019 563.687 479.019 564.579C479.009 564.613 479.008 564.649 479.015 564.683C479.021 564.717 479.036 564.749 479.057 564.777C479.078 564.805 479.105 564.828 479.137 564.843C479.168 564.859 479.202 564.867 479.237 564.867C479.272 564.867 479.307 564.859 479.338 564.843C479.369 564.828 479.397 564.805 479.418 564.777C479.439 564.749 479.453 564.717 479.46 564.683C479.467 564.649 479.465 564.613 479.456 564.579C479.456 563.687 479.456 562.795 479.456 561.903C479.456 561.845 479.433 561.79 479.392 561.749C479.351 561.708 479.295 561.685 479.237 561.685C479.179 561.685 479.124 561.708 479.083 561.749C479.042 561.79 479.019 561.845 479.019 561.903Z" fill="#BC2F20"/>
<path d="M379.956 568.683C380.419 570.394 381.483 571.879 382.953 572.867C383.309 573.062 383.844 572.738 383.698 572.3C383.037 570.739 382.048 569.339 380.798 568.197C380.72 568.117 380.618 568.066 380.508 568.051C380.397 568.035 380.285 568.057 380.189 568.113C380.092 568.169 380.017 568.255 379.975 568.358C379.933 568.461 379.926 568.576 379.956 568.683Z" fill="#BC2F20"/>
<path d="M376.1 573.143C376.418 574.123 376.876 575.052 377.461 575.9C377.72 576.224 378.157 575.9 378.093 575.527C377.841 574.566 377.46 573.644 376.959 572.786C376.732 572.316 375.889 572.656 376.1 573.143Z" fill="#BC2F20"/>
<path d="M464.779 526.063C463.726 526.776 463.029 528.528 464.325 529.387C464.388 529.422 464.457 529.441 464.529 529.445C464.6 529.448 464.671 529.435 464.736 529.407C464.802 529.379 464.86 529.336 464.907 529.282C464.954 529.228 464.987 529.164 465.006 529.095C465.151 528.252 464.925 527.571 465.508 526.792C465.832 526.371 465.2 525.771 464.779 526.063Z" fill="#BC2F20"/>
<path d="M368.632 320.662C369.118 321.619 369.588 322.576 370.09 323.516C370.16 323.585 370.244 323.637 370.336 323.671C370.429 323.704 370.527 323.718 370.624 323.711C371.434 323.711 372.244 323.711 373.087 323.711C373.247 323.693 373.402 323.642 373.541 323.561C373.68 323.48 373.802 323.371 373.897 323.241C374.343 322.582 374.743 321.894 375.096 321.181C375.122 321.102 375.165 321.03 375.221 320.968C375.277 320.907 375.346 320.858 375.422 320.824C375.498 320.79 375.581 320.773 375.664 320.773C375.747 320.773 375.829 320.791 375.906 320.824L379.065 321.732C379.065 322.706 379.065 323.646 379.065 324.603C379.065 325.106 379.065 325.479 379.664 325.69C380.127 325.851 380.556 326.099 380.928 326.419C381.064 326.569 381.231 326.689 381.416 326.771C381.602 326.853 381.802 326.896 382.005 326.896C382.208 326.896 382.408 326.853 382.594 326.771C382.779 326.689 382.946 326.569 383.082 326.419C383.663 326.037 384.263 325.685 384.88 325.365L387.861 327.993C387.294 328.901 386.808 329.744 386.241 330.555C386.094 330.714 386.013 330.922 386.013 331.139C386.013 331.355 386.094 331.564 386.241 331.723C386.612 332.154 386.903 332.648 387.1 333.182C387.139 333.34 387.21 333.489 387.307 333.62C387.405 333.75 387.527 333.86 387.667 333.943C387.807 334.026 387.962 334.08 388.124 334.103C388.285 334.125 388.449 334.116 388.606 334.074C389.254 334.074 389.902 334.074 390.534 334.074C391.166 334.074 391.247 334.253 391.36 334.739C391.587 335.68 391.879 336.604 392.138 337.545V337.853C391.247 338.356 390.324 338.826 389.449 339.361C389.337 339.443 389.243 339.548 389.173 339.668C389.104 339.788 389.06 339.921 389.044 340.059C389.044 341.016 388.72 342.167 389.141 342.864C389.562 343.562 390.761 343.951 391.555 344.486C391.927 344.697 392.073 344.924 391.944 345.346C391.668 346.238 391.409 347.13 391.182 348.022C391.175 348.111 391.149 348.198 391.106 348.276C391.062 348.354 391.002 348.422 390.929 348.474C390.857 348.527 390.774 348.563 390.686 348.58C390.598 348.597 390.508 348.595 390.421 348.573C389.659 348.573 388.882 348.573 388.12 348.46C387.945 348.423 387.762 348.452 387.606 348.542C387.451 348.631 387.334 348.775 387.278 348.946C386.926 349.663 386.52 350.351 386.063 351.006C385.954 351.141 385.894 351.31 385.894 351.484C385.894 351.658 385.954 351.827 386.063 351.963C386.581 352.79 387.051 353.584 387.57 354.541L386.727 355.304L385.885 356.098C384.751 357.217 384.702 357.298 383.422 356.374C382.997 356 382.456 355.783 381.89 355.759C381.324 355.736 380.767 355.907 380.312 356.244C379.741 356.456 379.265 356.865 378.968 357.397C378.671 357.929 378.573 358.55 378.692 359.147C378.822 360.558 378.692 360.591 377.347 360.931C376.554 361.126 375.614 361.612 374.982 361.353C374.35 361.093 374.124 360.088 373.767 359.374C373.73 359.227 373.663 359.089 373.572 358.967C373.48 358.846 373.366 358.744 373.235 358.667C373.104 358.59 372.959 358.54 372.808 358.519C372.658 358.499 372.505 358.508 372.358 358.547C371.696 358.62 371.027 358.62 370.365 358.547C370.179 358.505 369.983 358.532 369.816 358.625C369.648 358.718 369.521 358.869 369.458 359.05C369.021 359.861 368.535 360.672 368.065 361.499C366.963 361.191 365.91 360.85 364.825 360.607C364.355 360.493 364.274 360.25 364.29 359.845C364.331 359.099 364.331 358.352 364.29 357.606C364.254 357.303 364.103 357.024 363.869 356.828C363.141 356.343 362.384 355.905 361.601 355.514C361.473 355.458 361.335 355.429 361.196 355.429C361.057 355.429 360.919 355.458 360.791 355.514C360.078 355.871 359.414 356.325 358.717 356.698C358.616 356.747 358.506 356.773 358.393 356.773C358.281 356.773 358.17 356.747 358.069 356.698C357.227 355.887 356.449 355.077 355.591 354.168C356.093 353.341 356.595 352.547 357.016 351.801C357.077 351.665 357.108 351.519 357.108 351.371C357.108 351.223 357.077 351.076 357.016 350.941C356.628 350.162 356.125 349.433 355.737 348.654C355.673 348.491 355.558 348.353 355.409 348.262C355.259 348.171 355.084 348.132 354.91 348.151C354.019 348.151 353.112 348.151 352.254 348.151C352.254 348.038 352.173 348.006 352.156 347.957L351.589 345.784C351.233 344.389 351.201 344.292 352.545 343.708C353.89 343.124 354.327 342.491 354.019 341.145C353.93 340.767 353.93 340.373 354.019 339.994C354.059 339.854 354.071 339.708 354.054 339.564C354.037 339.42 353.992 339.281 353.921 339.155C353.85 339.028 353.755 338.917 353.642 338.827C353.528 338.737 353.397 338.671 353.258 338.632C352.594 338.307 351.638 337.999 351.444 337.448C351.249 336.896 351.687 336.037 351.897 335.323C352.318 333.782 352.318 333.782 353.89 333.799C354.246 333.799 354.619 333.799 354.975 333.799C355.15 333.829 355.33 333.796 355.484 333.708C355.638 333.619 355.756 333.479 355.818 333.312C356.239 332.517 356.757 331.788 357.178 330.993C357.234 330.868 357.263 330.733 357.263 330.596C357.263 330.459 357.234 330.323 357.178 330.198C356.757 329.371 356.271 328.576 355.98 328.074L358.588 325.057C359.284 325.495 359.916 325.803 360.467 326.225C360.59 326.348 360.737 326.446 360.898 326.513C361.059 326.58 361.232 326.615 361.407 326.615C361.581 326.615 361.754 326.58 361.915 326.513C362.076 326.446 362.223 326.348 362.346 326.225C362.872 325.85 363.443 325.544 364.047 325.317C364.245 325.27 364.418 325.151 364.532 324.983C364.646 324.814 364.693 324.61 364.663 324.408C364.663 323.711 364.663 323.014 364.663 322.316C364.663 321.619 364.825 321.603 365.311 321.489C366.267 321.262 367.19 320.97 368.13 320.711L368.632 320.662ZM383.649 341.405C383.704 338.999 383.041 336.631 381.744 334.605C380.448 332.578 378.577 330.985 376.372 330.028C374.166 329.071 371.725 328.795 369.362 329.234C366.998 329.673 364.819 330.808 363.103 332.493C361.387 334.179 360.213 336.338 359.729 338.695C359.245 341.053 359.475 343.501 360.389 345.727C361.302 347.953 362.858 349.856 364.857 351.192C366.857 352.528 369.209 353.237 371.613 353.228C374.76 353.208 377.776 351.963 380.022 349.756C382.269 347.549 383.569 344.554 383.649 341.405Z" fill="black"/>
<path d="M217.777 329.177C217.553 329.449 217.404 329.777 217.347 330.126C217.291 330.475 217.328 330.833 217.455 331.163C217.581 331.493 217.794 331.784 218.07 332.005C218.346 332.225 218.675 332.369 219.025 332.42L220.548 332.793C223.464 333.491 223.431 333.491 223.528 336.459C223.528 337.269 223.366 337.74 222.524 337.967C221.682 338.194 220.564 338.664 219.592 339.021C219.235 339.113 218.909 339.299 218.647 339.559C218.386 339.819 218.198 340.145 218.104 340.502C218.01 340.858 218.013 341.234 218.112 341.589C218.211 341.945 218.403 342.268 218.668 342.524L219.705 343.708C221.601 345.897 221.568 345.881 219.867 348.33C219.72 348.639 219.457 348.876 219.135 348.992C218.814 349.107 218.46 349.091 218.15 348.946C217.129 348.59 216.076 348.33 215.04 348.022C214.714 347.94 214.374 347.934 214.046 348.004C213.718 348.075 213.41 348.22 213.147 348.428C212.884 348.637 212.672 348.903 212.529 349.207C212.385 349.51 212.313 349.843 212.318 350.179C212.318 351.347 212.529 352.514 212.593 353.682C212.593 354.006 212.593 354.558 212.431 354.639C211.369 355.224 210.229 355.655 209.046 355.92C208.641 355.92 208.041 355.044 207.555 354.525C207.069 354.006 206.859 353.633 206.518 353.195C205.077 351.347 203.538 351.428 202.323 353.439C201.837 354.25 201.351 355.061 200.848 355.871C200.686 356.115 200.395 356.504 200.249 356.471C199.052 356.312 197.881 355.995 196.766 355.531C196.377 355.336 196.377 354.25 196.296 353.552C196.215 352.855 196.296 352.157 196.296 351.476C196.299 351.108 196.212 350.744 196.041 350.418C195.87 350.092 195.621 349.813 195.316 349.606C195.012 349.399 194.661 349.27 194.295 349.232C193.929 349.193 193.559 349.245 193.218 349.384C192.214 349.806 191.242 350.26 190.221 350.649C189.897 350.763 189.33 350.86 189.184 350.649C188.305 349.823 187.566 348.859 186.997 347.795C186.803 347.341 187.678 346.416 188.083 345.719C188.293 345.346 188.553 345.005 188.796 344.649C190.059 342.784 189.476 341.405 187.289 340.821C186.366 340.594 185.426 340.4 184.503 340.156C184.243 340.156 183.822 339.897 183.806 339.735C183.597 338.497 183.548 337.238 183.66 335.988C183.66 335.583 184.827 335.307 185.475 335.031C186.123 334.756 186.949 334.512 187.678 334.22C187.941 334.081 188.172 333.889 188.357 333.656C188.542 333.422 188.677 333.153 188.753 332.865C188.829 332.577 188.845 332.277 188.799 331.983C188.754 331.688 188.648 331.407 188.488 331.155L185.556 327.766C186.204 326.76 186.754 325.771 187.451 324.895C187.62 324.739 187.82 324.621 188.038 324.548C188.255 324.476 188.486 324.45 188.715 324.473C189.816 324.684 190.885 325.057 191.955 325.365C192.284 325.477 192.636 325.501 192.977 325.435C193.318 325.37 193.636 325.217 193.901 324.991C194.165 324.766 194.366 324.476 194.485 324.149C194.604 323.822 194.637 323.47 194.579 323.127C194.579 322.706 194.482 322.268 194.466 321.83C194.255 318.586 194.255 318.586 197.463 317.743C197.69 317.711 197.922 317.731 198.141 317.801C198.36 317.871 198.56 317.99 198.726 318.149C199.536 319.041 200.2 320.095 201.01 320.987C201.37 321.307 201.814 321.515 202.29 321.587C203.91 321.911 204.234 320.468 204.834 319.495C206.599 316.608 206.583 316.575 209.694 317.873C209.888 317.988 210.056 318.143 210.187 318.327C210.319 318.512 210.41 318.721 210.455 318.943C210.601 320.095 210.455 321.295 210.633 322.446C210.764 322.99 211.038 323.489 211.427 323.89C212.35 324.96 213.306 324.23 214.23 323.89C217.858 322.398 217.858 322.381 220.126 325.852C219.333 326.874 218.555 328.025 217.777 329.177ZM192.603 336.296C192.52 338.428 193.072 340.536 194.188 342.354C195.305 344.171 196.935 345.616 198.873 346.504C200.81 347.392 202.968 347.684 205.071 347.343C207.175 347.002 209.13 346.043 210.688 344.588C212.247 343.133 213.338 341.247 213.825 339.17C214.311 337.092 214.17 334.917 213.419 332.921C212.669 330.924 211.343 329.195 209.609 327.954C207.876 326.713 205.813 326.015 203.683 325.949C200.856 325.895 198.118 326.945 196.05 328.876C193.981 330.807 192.745 333.469 192.603 336.296Z" fill="black"/>
<path d="M293.804 355.044C293.596 355.267 293.436 355.531 293.335 355.818C293.233 356.106 293.191 356.411 293.212 356.715C293.234 357.02 293.317 357.316 293.458 357.587C293.599 357.857 293.794 358.096 294.031 358.288C294.315 358.344 294.58 358.471 294.801 358.659C295.022 358.846 295.192 359.086 295.294 359.358C295.396 359.629 295.428 359.922 295.385 360.208C295.343 360.495 295.228 360.766 295.051 360.996C294.926 361.315 294.818 361.639 294.727 361.969C293.577 362.213 292.362 361.515 291.487 363.072C290.613 364.629 291.779 365.359 292.184 366.77C291.767 366.993 291.389 367.283 291.066 367.629C290.37 368.489 289.657 368.602 288.895 367.84C288.134 367.078 287.275 367.743 286.352 368.067C285.429 368.392 285.477 369.089 285.591 369.689C285.769 370.841 285.202 371.197 284.197 371.392C283.193 371.587 282.48 371.911 282.027 370.646C281.947 370.394 281.81 370.164 281.628 369.972C281.445 369.781 281.221 369.634 280.974 369.543C279.726 369.332 278.43 369.267 277.96 370.905C277.828 371.181 277.659 371.437 277.458 371.668L276.049 371.262L274.72 370.857C274.72 370.208 274.72 369.64 274.72 369.073C274.72 368.002 272.598 366.754 271.788 367.451C270.557 368.424 269.731 368.067 268.921 366.964C268.696 366.683 268.452 366.418 268.192 366.17L268.937 364.937C269.634 363.77 268.5 361.548 267.187 361.694C265.875 361.84 265.324 361.223 265.195 360.072C265.195 359.683 265.049 359.31 264.968 358.937C265.162 358.807 265.292 358.677 265.438 358.596C266.313 358.158 267.058 357.85 267.058 356.488C267.119 355.99 267.013 355.487 266.758 355.056C266.503 354.624 266.113 354.29 265.648 354.104C264.466 353.536 265.422 352.676 265.486 351.963C265.551 351.249 265.762 350.811 266.653 350.925C267.212 351.023 267.788 350.913 268.273 350.617C268.551 350.419 268.785 350.166 268.96 349.873C269.135 349.579 269.247 349.253 269.288 348.914C269.329 348.574 269.299 348.231 269.199 347.904C269.1 347.577 268.933 347.275 268.71 347.016C268.613 346.838 268.532 346.643 268.419 346.4L270.508 344.422C271.61 344.924 272.339 345.832 273.829 345.086C275.32 344.34 274.818 343.027 275.061 341.843L277.863 341.146C278.157 341.593 278.412 342.065 278.625 342.556C278.997 343.74 279.985 343.319 280.779 343.465C280.937 343.505 281.101 343.513 281.262 343.489C281.423 343.464 281.577 343.406 281.715 343.32C281.853 343.233 281.972 343.119 282.064 342.985C282.157 342.851 282.221 342.7 282.253 342.54C282.291 342.294 282.392 342.062 282.545 341.867C282.699 341.671 282.9 341.519 283.13 341.424C283.36 341.329 283.61 341.296 283.857 341.327C284.103 341.357 284.338 341.451 284.538 341.6C284.963 341.774 285.402 341.915 285.85 342.021C285.906 342.56 285.906 343.104 285.85 343.643C285.591 344.811 286.563 344.941 287.162 345.443C287.275 345.561 287.411 345.655 287.562 345.719C287.712 345.783 287.873 345.816 288.037 345.816C288.2 345.816 288.362 345.783 288.512 345.719C288.662 345.655 288.798 345.561 288.912 345.443C289.089 345.247 289.312 345.096 289.561 345.006C289.81 344.915 290.077 344.887 290.339 344.924C290.601 344.961 290.85 345.062 291.064 345.217C291.279 345.373 291.452 345.578 291.568 345.816C291.808 346.12 292.068 346.407 292.346 346.676C292.071 347.908 290.726 348.541 291.568 350.163C292.411 351.784 293.691 351.006 294.808 351.314C295.748 353.65 295.748 353.65 293.804 355.044ZM271.027 356.536C271.017 358.336 271.541 360.099 272.533 361.601C273.524 363.103 274.938 364.276 276.596 364.973C278.254 365.67 280.081 365.86 281.846 365.517C283.611 365.174 285.235 364.314 286.512 363.047C287.79 361.78 288.663 360.162 289.021 358.398C289.379 356.634 289.207 354.803 288.525 353.137C287.844 351.471 286.684 350.045 285.193 349.039C283.701 348.033 281.946 347.493 280.147 347.487C277.755 347.482 275.457 348.42 273.75 350.099C272.043 351.777 271.065 354.06 271.027 356.455V356.536Z" fill="black"/>
<path d="M311.932 268.149C311.089 268.489 310.733 268.051 310.312 267.597C310.029 267.311 309.692 267.084 309.321 266.929C308.949 266.775 308.551 266.695 308.149 266.695C307.747 266.695 307.349 266.775 306.978 266.929C306.606 267.084 306.27 267.311 305.986 267.597C305.468 268.051 305.063 268.359 304.366 267.921C303.67 267.484 303.702 267.078 303.767 266.429C303.855 265.607 303.638 264.781 303.157 264.108C302.676 263.435 301.965 262.963 301.159 262.78C300.642 262.601 300.209 262.238 299.944 261.759C299.604 261.094 299.944 260.591 300.64 260.137C301.327 259.712 301.83 259.046 302.052 258.269C302.274 257.492 302.198 256.66 301.839 255.936C301.743 255.705 301.693 255.457 301.693 255.207C301.693 254.956 301.743 254.708 301.839 254.477C301.9 254.326 301.991 254.189 302.108 254.075C302.225 253.962 302.365 253.875 302.518 253.82C302.671 253.765 302.834 253.743 302.996 253.755C303.159 253.768 303.316 253.815 303.459 253.893C304.207 254.207 305.049 254.213 305.801 253.909C306.554 253.606 307.156 253.017 307.477 252.271C307.618 252.062 307.805 251.889 308.024 251.765C308.244 251.641 308.489 251.57 308.74 251.558C309.012 251.575 309.275 251.654 309.511 251.789C309.747 251.924 309.949 252.111 310.101 252.336C310.355 253.102 310.894 253.741 311.606 254.119C312.318 254.496 313.149 254.584 313.924 254.363C314.466 254.405 314.976 254.634 315.366 255.012C315.901 255.417 315.917 255.936 315.496 256.634C315.246 256.941 315.068 257.3 314.974 257.684C314.88 258.068 314.872 258.469 314.951 258.857C315.03 259.245 315.194 259.61 315.431 259.927C315.668 260.243 315.972 260.504 316.322 260.688C317.002 261.175 316.97 261.645 316.84 262.31C316.711 262.975 316.241 263.251 315.577 263.316C315.182 263.339 314.795 263.444 314.442 263.622C314.088 263.8 313.774 264.048 313.52 264.352C313.265 264.655 313.075 265.008 312.961 265.387C312.846 265.767 312.811 266.165 312.855 266.559C312.901 266.724 312.914 266.897 312.893 267.067C312.871 267.237 312.815 267.401 312.729 267.549C312.643 267.698 312.528 267.827 312.391 267.93C312.254 268.033 312.098 268.107 311.932 268.149ZM308.384 255.823C307.806 255.787 307.226 255.87 306.681 256.067C306.136 256.264 305.637 256.571 305.215 256.968C304.793 257.365 304.456 257.845 304.226 258.377C303.996 258.91 303.878 259.484 303.878 260.064C303.878 260.644 303.996 261.218 304.226 261.75C304.456 262.283 304.793 262.763 305.215 263.16C305.637 263.557 306.136 263.864 306.681 264.061C307.226 264.258 307.806 264.341 308.384 264.305C309.462 264.238 310.475 263.762 311.214 262.974C311.954 262.186 312.366 261.145 312.366 260.064C312.366 258.982 311.954 257.942 311.214 257.154C310.475 256.366 309.462 255.89 308.384 255.823Z" fill="black"/>
<path d="M27.8 588.209C26.9738 588.55 26.6174 588.209 26.18 587.658C25.898 587.37 25.5615 587.141 25.1901 586.985C24.8188 586.829 24.4201 586.749 24.0173 586.749C23.6146 586.749 23.2158 586.829 22.8445 586.985C22.4732 587.141 22.1366 587.37 21.8546 587.658C21.3362 588.096 20.9312 588.404 20.2346 587.966C19.538 587.528 19.5542 587.122 19.6352 586.474C19.723 585.651 19.5059 584.825 19.025 584.152C18.5441 583.479 17.8331 583.007 17.027 582.825C16.5081 582.658 16.073 582.298 15.812 581.819C15.4718 581.138 15.812 580.652 16.5086 580.197C17.1951 579.773 17.6985 579.106 17.9203 578.33C18.142 577.553 18.0661 576.721 17.7074 575.997C17.6112 575.766 17.5616 575.518 17.5616 575.267C17.5616 575.017 17.6112 574.769 17.7074 574.537C17.7677 574.386 17.8594 574.249 17.9764 574.136C18.0934 574.023 18.2331 573.936 18.3862 573.881C18.5393 573.825 18.7024 573.803 18.8646 573.816C19.0269 573.828 19.1846 573.875 19.3274 573.954C20.0754 574.268 20.9171 574.274 21.6694 573.97C22.4218 573.666 23.0239 573.078 23.345 572.332C23.4857 572.123 23.6732 571.949 23.8925 571.825C24.1119 571.702 24.3571 571.631 24.6086 571.618C24.8791 571.638 25.1418 571.718 25.3773 571.853C25.6128 571.987 25.8151 572.173 25.9694 572.397C26.2195 573.162 26.7547 573.802 27.4637 574.182C28.1728 574.563 29.0011 574.655 29.7764 574.44C30.3237 574.464 30.843 574.689 31.2344 575.073C31.7528 575.494 31.7852 575.997 31.364 576.694C31.1146 577.001 30.9364 577.36 30.8421 577.745C30.7479 578.129 30.74 578.529 30.819 578.917C30.8981 579.305 31.062 579.67 31.2991 579.987C31.5362 580.304 31.8406 580.564 32.1902 580.749C32.8706 581.235 32.8382 581.706 32.7086 582.371C32.579 583.036 32.1092 583.311 31.445 583.376C31.0498 583.4 30.6636 583.504 30.31 583.682C29.9563 583.861 29.6426 584.109 29.388 584.412C29.1333 584.716 28.9431 585.068 28.8288 585.448C28.7146 585.827 28.6787 586.226 28.7234 586.62C28.7697 586.785 28.7823 586.958 28.7607 587.128C28.7391 587.298 28.6835 587.462 28.5974 587.61C28.5113 587.758 28.3964 587.888 28.2594 587.99C28.1224 588.093 27.9662 588.168 27.8 588.209ZM24.2684 575.883C23.69 575.848 23.1105 575.931 22.5654 576.128C22.0204 576.325 21.5214 576.631 21.0992 577.029C20.677 577.426 20.3405 577.905 20.1106 578.438C19.8806 578.97 19.7619 579.544 19.7619 580.124C19.7619 580.705 19.8806 581.278 20.1106 581.811C20.3405 582.343 20.677 582.823 21.0992 583.22C21.5214 583.618 22.0204 583.924 22.5654 584.121C23.1105 584.318 23.69 584.401 24.2684 584.365C25.3467 584.299 26.3589 583.823 27.0988 583.035C27.8388 582.247 28.2507 581.206 28.2507 580.124C28.2507 579.043 27.8388 578.002 27.0988 577.214C26.3589 576.426 25.3467 575.95 24.2684 575.883Z" fill="black"/>
<path d="M276.681 326.42C275.358 326.427 274.049 326.15 272.841 325.609C272.6 325.493 272.414 325.287 272.323 325.036C272.233 324.784 272.244 324.506 272.355 324.263C272.468 324.023 272.671 323.837 272.919 323.746C273.168 323.655 273.443 323.666 273.684 323.777C275.139 324.451 276.777 324.619 278.338 324.255C279.9 323.891 281.295 323.014 282.302 321.766C282.719 321.187 283.016 320.531 283.177 319.836C282.165 319.67 281.175 319.387 280.228 318.992C278.938 318.578 277.776 317.834 276.859 316.835C276.321 316.227 275.995 315.459 275.93 314.649C275.866 313.838 276.067 313.029 276.502 312.343C277.201 311.577 278.162 311.102 279.194 311.012C280.226 310.922 281.255 311.223 282.075 311.856C282.903 312.412 283.61 313.129 284.153 313.965C284.695 314.801 285.063 315.739 285.234 316.722C285.234 317.062 285.331 317.419 285.364 317.76C286.281 317.448 287.094 316.887 287.712 316.139C288.33 315.392 288.729 314.488 288.863 313.527C289.042 312.365 288.981 311.178 288.685 310.04C286.846 310.006 285.023 309.7 283.274 309.132C282.379 308.933 281.562 308.475 280.925 307.815C280.288 307.154 279.86 306.321 279.694 305.418C279.648 304.859 279.748 304.298 279.984 303.789C280.219 303.28 280.583 302.841 281.038 302.515C281.609 302.059 282.282 301.749 282.999 301.614C283.716 301.478 284.456 301.52 285.153 301.736C286.181 302.164 287.105 302.806 287.865 303.62C288.625 304.434 289.203 305.401 289.56 306.456C289.779 306.921 289.974 307.397 290.143 307.883C290.703 307.787 291.247 307.618 291.763 307.38C292.406 307.072 292.978 306.635 293.446 306.097C293.914 305.558 294.268 304.93 294.484 304.25C294.737 303.266 294.737 302.234 294.484 301.25C292.77 301.459 291.03 301.303 289.38 300.791C287.73 300.28 286.207 299.425 284.91 298.282C284.453 297.86 284.119 297.322 283.942 296.726C283.765 296.129 283.753 295.496 283.906 294.892C284.117 294.285 284.504 293.754 285.017 293.367C285.531 292.98 286.148 292.754 286.789 292.719C288.206 292.592 289.632 292.822 290.936 293.388C292.241 293.955 293.383 294.84 294.258 295.963C294.849 296.862 295.358 297.811 295.78 298.801C297.53 297.993 298.965 296.631 299.863 294.925C300.274 294.122 300.488 293.232 300.488 292.33C300.488 291.428 300.274 290.538 299.863 289.735C299.804 289.616 299.77 289.486 299.761 289.354C299.753 289.221 299.771 289.088 299.814 288.962C299.856 288.837 299.924 288.721 300.011 288.621C300.099 288.521 300.205 288.44 300.325 288.381C300.444 288.322 300.573 288.288 300.706 288.279C300.838 288.271 300.971 288.289 301.097 288.332C301.222 288.375 301.338 288.442 301.438 288.53C301.537 288.617 301.619 288.724 301.677 288.843C302.228 289.923 302.515 291.118 302.515 292.33C302.515 293.542 302.228 294.737 301.677 295.817C300.542 297.997 298.687 299.716 296.428 300.682C296.794 302.031 296.794 303.453 296.428 304.802C296.119 305.756 295.621 306.638 294.964 307.395C294.307 308.153 293.505 308.771 292.605 309.213C292.003 309.481 291.372 309.682 290.726 309.813C291.025 311.139 291.069 312.509 290.856 313.851C290.665 315.215 290.084 316.494 289.185 317.535C288.286 318.576 287.105 319.336 285.785 319.722L285.25 319.819C285.051 320.933 284.603 321.986 283.938 322.901C283.089 324.016 281.99 324.916 280.729 325.528C279.468 326.139 278.081 326.445 276.681 326.42ZM279.289 313.04C279.07 313.022 278.85 313.057 278.647 313.142C278.444 313.226 278.264 313.358 278.122 313.527C277.955 313.853 277.893 314.224 277.945 314.587C277.997 314.95 278.161 315.288 278.414 315.554C279.114 316.298 279.988 316.855 280.957 317.176C281.724 317.496 282.522 317.736 283.339 317.889C283.339 317.662 283.339 317.419 283.258 317.192C283.14 316.473 282.879 315.784 282.489 315.168C282.099 314.553 281.589 314.022 280.99 313.608C280.484 313.27 279.896 313.074 279.289 313.04ZM283.873 303.585C283.29 303.582 282.721 303.77 282.253 304.12C282.068 304.248 281.917 304.42 281.815 304.622C281.713 304.823 281.663 305.046 281.67 305.272C281.751 306.229 282.901 306.894 283.873 307.25C285.207 307.707 286.597 307.975 288.004 308.045C287.907 307.818 287.81 307.559 287.697 307.315C287.439 306.517 287.018 305.782 286.46 305.156C285.902 304.531 285.22 304.029 284.457 303.683C284.268 303.623 284.071 303.59 283.873 303.585ZM287.632 294.714H287.081C286.401 294.811 285.996 295.055 285.866 295.46C285.866 295.606 285.688 296.125 286.417 296.903C288.489 298.642 291.156 299.503 293.853 299.304C293.489 298.519 293.072 297.761 292.605 297.033C291.988 296.316 291.225 295.738 290.368 295.338C289.51 294.939 288.578 294.726 287.632 294.714Z" fill="black"/>
<path d="M296.59 69.0577C293.059 67.89 288.895 67.9873 285.25 67.6791C281.119 67.3386 277.248 67.8738 274.056 70.8092C271.943 72.7973 270.552 75.4338 270.103 78.3019C269.557 78.7569 269.096 79.3062 268.743 79.9237C266.021 85.0323 266.912 93.9684 270.703 98.2661C275.676 103.926 286.093 105.678 292.978 103.375C296.401 102.178 299.456 100.114 301.844 97.3818C304.232 94.6501 305.871 91.345 306.602 87.7894C308.06 80.021 304.496 71.6525 296.59 69.0577Z" fill="#E89F2B"/>
<path d="M337.058 72.2363C331.258 65.6194 297.854 44.1631 289.171 44.1631C275.822 44.1631 249.222 63.803 237.898 73.6797C232.293 78.5451 231.515 80.9129 235.986 82.113C244.606 84.25 253.447 85.3658 262.327 85.4377C275.093 85.9404 287.891 86.0053 300.657 85.4377C309.453 85.0322 324.406 84.2376 333.219 81.9508C339.504 80.3128 344.769 80.9615 337.058 72.2363Z" fill="#488C93"/>
<path d="M287.567 57.0562C286.681 17.2899 286.314 -22.498 286.465 -62.3076L287.567 57.0562Z" fill="#488C93"/>
<path d="M288.879 57.4132C292.249 48.5096 292.022 62.976 292.297 53.5534C292.605 43.3523 291.909 7.59181 291.957 -2.62548C292.054 -22.7033 293.577 -43.3487 289.106 -63.0372C288.933 -63.601 288.584 -64.0943 288.11 -64.4448C287.636 -64.7953 287.063 -64.9844 286.474 -64.9844C285.884 -64.9844 285.311 -64.7953 284.837 -64.4448C284.363 -64.0943 284.014 -63.601 283.841 -63.0372C278.981 -42.8783 280.844 -21.5842 281.33 -1.00368C281.557 9.19738 279.888 41.7467 280.601 51.9316C281.233 60.9812 282.772 49.3043 286.384 57.7376C286.903 58.9377 288.523 58.3701 288.879 57.4132Z" fill="#488C93"/>
<path d="M291.293 47.8771C300.717 52.4003 309.657 57.8723 317.974 64.2085C319.222 65.1491 320.421 63.0408 319.206 62.1002C310.884 55.7749 301.945 50.3086 292.524 45.7849C291.115 45.1038 289.884 47.1959 291.293 47.8771Z" fill="#7DB4B7"/>
<path d="M269.99 88.8921C270.134 88.8685 270.265 88.7944 270.36 88.683C270.454 88.5716 270.506 88.4301 270.506 88.284C270.506 88.1378 270.454 87.9964 270.36 87.885C270.265 87.7736 270.134 87.6994 269.99 87.6758C269.846 87.6994 269.715 87.7736 269.62 87.885C269.526 87.9964 269.474 88.1378 269.474 88.284C269.474 88.4301 269.526 88.5716 269.62 88.683C269.715 88.7944 269.846 88.8685 269.99 88.8921Z" fill="#F4B251"/>
<path d="M270.217 92.3146C273.457 101.559 283.744 104.819 292.686 102.045C293.431 101.802 293.107 100.634 292.362 100.861C284.149 103.456 274.38 100.651 271.383 92.0227C271.124 91.2929 269.958 91.6173 270.217 92.3471V92.3146Z" fill="#F4B251"/>
<path d="M322.105 66.7872C322.428 66.7872 322.737 66.659 322.965 66.4309C323.192 66.2028 323.32 65.8934 323.32 65.5708C323.32 65.2482 323.192 64.9389 322.965 64.7107C322.737 64.4826 322.428 64.3545 322.105 64.3545C321.783 64.3545 321.474 64.4826 321.246 64.7107C321.018 64.9389 320.89 65.2482 320.89 65.5708C320.89 65.8934 321.018 66.2028 321.246 66.4309C321.474 66.659 321.783 66.7872 322.105 66.7872Z" fill="#7DB4B7"/>
</svg>
