<svg width="60" height="60" viewBox="0 0 60 60" fill="none" xmlns="http://www.w3.org/2000/svg">
<rect width="60" height="60" rx="30" fill="url(#paint0_linear_10187_86454)"/>
<path d="M27 20C24.38 20 22.25 22.13 22.25 24.75C22.25 27.32 24.26 29.4 26.88 29.49C26.96 29.48 27.04 29.48 27.1 29.49C27.12 29.49 27.13 29.49 27.15 29.49C27.16 29.49 27.16 29.49 27.17 29.49C29.73 29.4 31.74 27.32 31.75 24.75C31.75 22.13 29.62 20 27 20Z" fill="#4764C3"/>
<path d="M32.08 32.15C29.29 30.29 24.74 30.29 21.93 32.15C20.66 33 19.96 34.15 19.96 35.38C19.96 36.61 20.66 37.75 21.92 38.59C23.32 39.53 25.16 40 27 40C28.84 40 30.68 39.53 32.08 38.59C33.34 37.74 34.04 36.6 34.04 35.36C34.03 34.13 33.34 32.99 32.08 32.15Z" fill="#4764C3"/>
<path d="M37.99 25.34C38.15 27.28 36.77 28.98 34.86 29.21C34.85 29.21 34.85 29.21 34.84 29.21H34.81C34.75 29.21 34.69 29.21 34.64 29.23C33.67 29.28 32.78 28.97 32.11 28.4C33.14 27.48 33.73 26.1 33.61 24.6C33.54 23.79 33.26 23.05 32.84 22.42C33.22 22.23 33.66 22.11 34.11 22.07C36.07 21.9 37.82 23.36 37.99 25.34Z" fill="#4764C3"/>
<path d="M39.99 34.59C39.91 35.56 39.29 36.4 38.25 36.97C37.25 37.52 35.99 37.78 34.74 37.75C35.46 37.1 35.88 36.29 35.96 35.43C36.06 34.19 35.47 33 34.29 32.05C33.62 31.52 32.84 31.1 31.99 30.79C34.2 30.15 36.98 30.58 38.69 31.96C39.61 32.7 40.08 33.63 39.99 34.59Z" fill="#4764C3"/>
<defs>
<linearGradient id="paint0_linear_10187_86454" x1="30" y1="0" x2="30" y2="60" gradientUnits="userSpaceOnUse">
<stop stop-color="#4764C3" stop-opacity="0.5"/>
<stop offset="1" stop-color="white" stop-opacity="0"/>
</linearGradient>
</defs>
</svg>
